<mxfile host="app.diagrams.net" agent="Mozilla/5.0 (Windows NT 10.0; Win64; x64) AppleWebKit/537.36 (KHTML, like Gecko) Chrome/138.0.0.0 Safari/537.36 Edg/138.0.0.0" version="28.0.7">
  <diagram name="Page-1" id="ZhxIzSKUCAuZYus1Qrzm">
    <mxGraphModel dx="1477" dy="883" grid="1" gridSize="10" guides="1" tooltips="1" connect="1" arrows="1" fold="1" page="1" pageScale="1" pageWidth="1100" pageHeight="850" math="0" shadow="0">
      <root>
        <mxCell id="0" />
        <mxCell id="1" parent="0" />
        <mxCell id="LahrY4FiZnsEvUpyiPwn-1" value="" style="endArrow=none;html=1;rounded=0;fillColor=#60a917;strokeColor=#2D7600;" edge="1" parent="1">
          <mxGeometry width="50" height="50" relative="1" as="geometry">
            <mxPoint x="180" y="423" as="sourcePoint" />
            <mxPoint x="820" y="423" as="targetPoint" />
          </mxGeometry>
        </mxCell>
        <mxCell id="LahrY4FiZnsEvUpyiPwn-2" value="Dev Branch" style="edgeLabel;html=1;align=center;verticalAlign=middle;resizable=0;points=[];" vertex="1" connectable="0" parent="LahrY4FiZnsEvUpyiPwn-1">
          <mxGeometry x="0.9487" y="3" relative="1" as="geometry">
            <mxPoint as="offset" />
          </mxGeometry>
        </mxCell>
        <mxCell id="LahrY4FiZnsEvUpyiPwn-3" value="" style="endArrow=none;html=1;rounded=0;fillColor=#e51400;strokeColor=#B20000;" edge="1" parent="1">
          <mxGeometry width="50" height="50" relative="1" as="geometry">
            <mxPoint x="180" y="498" as="sourcePoint" />
            <mxPoint x="820" y="498" as="targetPoint" />
          </mxGeometry>
        </mxCell>
        <mxCell id="LahrY4FiZnsEvUpyiPwn-4" value="Master" style="edgeLabel;html=1;align=center;verticalAlign=middle;resizable=0;points=[];" vertex="1" connectable="0" parent="LahrY4FiZnsEvUpyiPwn-3">
          <mxGeometry x="0.8468" y="2" relative="1" as="geometry">
            <mxPoint as="offset" />
          </mxGeometry>
        </mxCell>
        <mxCell id="LahrY4FiZnsEvUpyiPwn-5" style="edgeStyle=orthogonalEdgeStyle;rounded=0;orthogonalLoop=1;jettySize=auto;html=1;" edge="1" parent="1">
          <mxGeometry relative="1" as="geometry">
            <mxPoint x="340" y="423" as="targetPoint" />
            <mxPoint x="340" y="353" as="sourcePoint" />
          </mxGeometry>
        </mxCell>
        <mxCell id="LahrY4FiZnsEvUpyiPwn-6" value="Story" style="edgeLabel;html=1;align=center;verticalAlign=middle;resizable=0;points=[];" vertex="1" connectable="0" parent="LahrY4FiZnsEvUpyiPwn-5">
          <mxGeometry x="0.8331" y="-2" relative="1" as="geometry">
            <mxPoint y="-34" as="offset" />
          </mxGeometry>
        </mxCell>
        <mxCell id="LahrY4FiZnsEvUpyiPwn-7" style="edgeStyle=orthogonalEdgeStyle;rounded=0;orthogonalLoop=1;jettySize=auto;html=1;" edge="1" parent="1">
          <mxGeometry relative="1" as="geometry">
            <mxPoint x="390" y="423" as="targetPoint" />
            <mxPoint x="390" y="383" as="sourcePoint" />
          </mxGeometry>
        </mxCell>
        <mxCell id="LahrY4FiZnsEvUpyiPwn-8" value="Bugfix1" style="edgeLabel;html=1;align=center;verticalAlign=middle;resizable=0;points=[];" vertex="1" connectable="0" parent="LahrY4FiZnsEvUpyiPwn-7">
          <mxGeometry x="0.7065" relative="1" as="geometry">
            <mxPoint y="-14" as="offset" />
          </mxGeometry>
        </mxCell>
        <mxCell id="LahrY4FiZnsEvUpyiPwn-9" style="edgeStyle=orthogonalEdgeStyle;rounded=0;orthogonalLoop=1;jettySize=auto;html=1;" edge="1" parent="1">
          <mxGeometry relative="1" as="geometry">
            <mxPoint x="510" y="423" as="targetPoint" />
            <mxPoint x="510" y="383" as="sourcePoint" />
          </mxGeometry>
        </mxCell>
        <mxCell id="LahrY4FiZnsEvUpyiPwn-10" value="Bugfix3" style="edgeLabel;html=1;align=center;verticalAlign=middle;resizable=0;points=[];" vertex="1" connectable="0" parent="LahrY4FiZnsEvUpyiPwn-9">
          <mxGeometry x="0.5011" y="-2" relative="1" as="geometry">
            <mxPoint x="2" y="-10" as="offset" />
          </mxGeometry>
        </mxCell>
        <mxCell id="LahrY4FiZnsEvUpyiPwn-11" value="" style="endArrow=classic;html=1;rounded=0;" edge="1" parent="1">
          <mxGeometry width="50" height="50" relative="1" as="geometry">
            <mxPoint x="120" y="10" as="sourcePoint" />
            <mxPoint x="910" y="10" as="targetPoint" />
          </mxGeometry>
        </mxCell>
        <mxCell id="LahrY4FiZnsEvUpyiPwn-12" value="Time" style="edgeLabel;html=1;align=center;verticalAlign=middle;resizable=0;points=[];" vertex="1" connectable="0" parent="LahrY4FiZnsEvUpyiPwn-11">
          <mxGeometry x="0.877" y="3" relative="1" as="geometry">
            <mxPoint as="offset" />
          </mxGeometry>
        </mxCell>
        <mxCell id="LahrY4FiZnsEvUpyiPwn-13" value="" style="endArrow=none;html=1;rounded=0;" edge="1" parent="1">
          <mxGeometry width="50" height="50" relative="1" as="geometry">
            <mxPoint x="310" y="354" as="sourcePoint" />
            <mxPoint x="810" y="350" as="targetPoint" />
          </mxGeometry>
        </mxCell>
        <mxCell id="LahrY4FiZnsEvUpyiPwn-14" value="Feature1" style="edgeLabel;html=1;align=center;verticalAlign=middle;resizable=0;points=[];" vertex="1" connectable="0" parent="LahrY4FiZnsEvUpyiPwn-13">
          <mxGeometry x="0.6556" y="1" relative="1" as="geometry">
            <mxPoint x="46" as="offset" />
          </mxGeometry>
        </mxCell>
        <mxCell id="LahrY4FiZnsEvUpyiPwn-15" value="" style="endArrow=classic;html=1;rounded=0;" edge="1" parent="1">
          <mxGeometry width="50" height="50" relative="1" as="geometry">
            <mxPoint x="312" y="420" as="sourcePoint" />
            <mxPoint x="312" y="353" as="targetPoint" />
          </mxGeometry>
        </mxCell>
        <mxCell id="LahrY4FiZnsEvUpyiPwn-16" value="Create" style="edgeLabel;html=1;align=center;verticalAlign=middle;resizable=0;points=[];" vertex="1" connectable="0" parent="LahrY4FiZnsEvUpyiPwn-15">
          <mxGeometry x="-0.7429" y="1" relative="1" as="geometry">
            <mxPoint as="offset" />
          </mxGeometry>
        </mxCell>
        <mxCell id="LahrY4FiZnsEvUpyiPwn-17" value="" style="endArrow=classic;html=1;rounded=0;" edge="1" parent="1">
          <mxGeometry width="50" height="50" relative="1" as="geometry">
            <mxPoint x="450" y="383" as="sourcePoint" />
            <mxPoint x="450" y="423" as="targetPoint" />
          </mxGeometry>
        </mxCell>
        <mxCell id="LahrY4FiZnsEvUpyiPwn-18" value="Bugfix2" style="edgeLabel;html=1;align=center;verticalAlign=middle;resizable=0;points=[];" vertex="1" connectable="0" parent="LahrY4FiZnsEvUpyiPwn-17">
          <mxGeometry x="-0.0476" y="-1" relative="1" as="geometry">
            <mxPoint as="offset" />
          </mxGeometry>
        </mxCell>
        <mxCell id="LahrY4FiZnsEvUpyiPwn-19" value="" style="shape=link;html=1;rounded=0;" edge="1" parent="1">
          <mxGeometry width="100" relative="1" as="geometry">
            <mxPoint x="180" y="283" as="sourcePoint" />
            <mxPoint x="790" y="283" as="targetPoint" />
          </mxGeometry>
        </mxCell>
        <mxCell id="LahrY4FiZnsEvUpyiPwn-20" value="QAEnvironment" style="edgeLabel;html=1;align=center;verticalAlign=middle;resizable=0;points=[];" vertex="1" connectable="0" parent="LahrY4FiZnsEvUpyiPwn-19">
          <mxGeometry x="0.9074" y="4" relative="1" as="geometry">
            <mxPoint x="1" as="offset" />
          </mxGeometry>
        </mxCell>
        <mxCell id="LahrY4FiZnsEvUpyiPwn-21" value="" style="endArrow=classic;html=1;rounded=0;" edge="1" parent="1">
          <mxGeometry width="50" height="50" relative="1" as="geometry">
            <mxPoint x="290" y="423" as="sourcePoint" />
            <mxPoint x="290" y="283" as="targetPoint" />
          </mxGeometry>
        </mxCell>
        <mxCell id="LahrY4FiZnsEvUpyiPwn-22" value="" style="endArrow=classic;html=1;rounded=0;" edge="1" parent="1">
          <mxGeometry width="50" height="50" relative="1" as="geometry">
            <mxPoint x="400" y="423" as="sourcePoint" />
            <mxPoint x="400" y="293" as="targetPoint" />
          </mxGeometry>
        </mxCell>
        <mxCell id="LahrY4FiZnsEvUpyiPwn-23" value="" style="shape=link;html=1;rounded=0;" edge="1" parent="1">
          <mxGeometry width="100" relative="1" as="geometry">
            <mxPoint x="150" y="203" as="sourcePoint" />
            <mxPoint x="820" y="203" as="targetPoint" />
          </mxGeometry>
        </mxCell>
        <mxCell id="LahrY4FiZnsEvUpyiPwn-24" value="UATEnvironment" style="edgeLabel;html=1;align=center;verticalAlign=middle;resizable=0;points=[];" vertex="1" connectable="0" parent="LahrY4FiZnsEvUpyiPwn-23">
          <mxGeometry x="0.9087" y="-1" relative="1" as="geometry">
            <mxPoint as="offset" />
          </mxGeometry>
        </mxCell>
        <mxCell id="LahrY4FiZnsEvUpyiPwn-25" value="" style="endArrow=classic;html=1;rounded=0;" edge="1" parent="1">
          <mxGeometry width="50" height="50" relative="1" as="geometry">
            <mxPoint x="470" y="423" as="sourcePoint" />
            <mxPoint x="470" y="293" as="targetPoint" />
          </mxGeometry>
        </mxCell>
        <mxCell id="LahrY4FiZnsEvUpyiPwn-26" value="" style="endArrow=classic;html=1;rounded=0;" edge="1" parent="1">
          <mxGeometry width="50" height="50" relative="1" as="geometry">
            <mxPoint x="588" y="423" as="sourcePoint" />
            <mxPoint x="590" y="500" as="targetPoint" />
          </mxGeometry>
        </mxCell>
        <mxCell id="LahrY4FiZnsEvUpyiPwn-27" value="Release Merge" style="edgeLabel;html=1;align=center;verticalAlign=middle;resizable=0;points=[];" vertex="1" connectable="0" parent="LahrY4FiZnsEvUpyiPwn-26">
          <mxGeometry x="-0.2267" relative="1" as="geometry">
            <mxPoint as="offset" />
          </mxGeometry>
        </mxCell>
        <mxCell id="LahrY4FiZnsEvUpyiPwn-28" value="" style="endArrow=classic;html=1;rounded=0;" edge="1" parent="1">
          <mxGeometry width="50" height="50" relative="1" as="geometry">
            <mxPoint x="499" y="423" as="sourcePoint" />
            <mxPoint x="500" y="203" as="targetPoint" />
          </mxGeometry>
        </mxCell>
        <mxCell id="LahrY4FiZnsEvUpyiPwn-29" value="" style="shape=link;html=1;rounded=0;" edge="1" parent="1">
          <mxGeometry width="100" relative="1" as="geometry">
            <mxPoint x="165" y="130" as="sourcePoint" />
            <mxPoint x="775" y="130" as="targetPoint" />
          </mxGeometry>
        </mxCell>
        <mxCell id="LahrY4FiZnsEvUpyiPwn-30" value="ProdEnvironment" style="edgeLabel;html=1;align=center;verticalAlign=middle;resizable=0;points=[];" vertex="1" connectable="0" parent="LahrY4FiZnsEvUpyiPwn-29">
          <mxGeometry x="0.9074" y="4" relative="1" as="geometry">
            <mxPoint x="1" as="offset" />
          </mxGeometry>
        </mxCell>
        <mxCell id="LahrY4FiZnsEvUpyiPwn-31" value="" style="endArrow=classic;html=1;rounded=0;" edge="1" parent="1">
          <mxGeometry width="50" height="50" relative="1" as="geometry">
            <mxPoint x="680" y="500" as="sourcePoint" />
            <mxPoint x="680" y="130" as="targetPoint" />
          </mxGeometry>
        </mxCell>
        <mxCell id="LahrY4FiZnsEvUpyiPwn-32" value="" style="endArrow=none;html=1;rounded=0;" edge="1" parent="1">
          <mxGeometry width="50" height="50" relative="1" as="geometry">
            <mxPoint x="370" y="383" as="sourcePoint" />
            <mxPoint x="770" y="383" as="targetPoint" />
          </mxGeometry>
        </mxCell>
        <mxCell id="LahrY4FiZnsEvUpyiPwn-33" value="Bug of feature" style="edgeLabel;html=1;align=center;verticalAlign=middle;resizable=0;points=[];" vertex="1" connectable="0" parent="LahrY4FiZnsEvUpyiPwn-32">
          <mxGeometry x="0.2476" y="2" relative="1" as="geometry">
            <mxPoint as="offset" />
          </mxGeometry>
        </mxCell>
        <mxCell id="LahrY4FiZnsEvUpyiPwn-34" value="" style="endArrow=classic;html=1;rounded=0;" edge="1" parent="1">
          <mxGeometry width="50" height="50" relative="1" as="geometry">
            <mxPoint x="370" y="423" as="sourcePoint" />
            <mxPoint x="370" y="383" as="targetPoint" />
          </mxGeometry>
        </mxCell>
        <mxCell id="LahrY4FiZnsEvUpyiPwn-35" value="" style="endArrow=classic;html=1;rounded=0;fillColor=#a20025;strokeColor=#6F0000;" edge="1" parent="1">
          <mxGeometry width="50" height="50" relative="1" as="geometry">
            <mxPoint x="430" y="303" as="sourcePoint" />
            <mxPoint x="430" y="423" as="targetPoint" />
          </mxGeometry>
        </mxCell>
        <mxCell id="LahrY4FiZnsEvUpyiPwn-36" value="Some other feature fix" style="edgeLabel;html=1;align=center;verticalAlign=middle;resizable=0;points=[];" vertex="1" connectable="0" parent="LahrY4FiZnsEvUpyiPwn-35">
          <mxGeometry x="-0.6429" y="1" relative="1" as="geometry">
            <mxPoint as="offset" />
          </mxGeometry>
        </mxCell>
        <mxCell id="LahrY4FiZnsEvUpyiPwn-37" value="" style="endArrow=classic;html=1;rounded=0;" edge="1" parent="1">
          <mxGeometry width="50" height="50" relative="1" as="geometry">
            <mxPoint x="536" y="422" as="sourcePoint" />
            <mxPoint x="536" y="203" as="targetPoint" />
          </mxGeometry>
        </mxCell>
        <mxCell id="LahrY4FiZnsEvUpyiPwn-38" value="&lt;div&gt;Challenges:&lt;/div&gt;Requires code freeze for release&lt;div&gt;Pollution to UAT with unfinished stories&lt;/div&gt;" style="text;html=1;align=left;verticalAlign=middle;resizable=0;points=[];autosize=1;strokeColor=none;fillColor=none;" vertex="1" parent="1">
          <mxGeometry x="440" y="10" width="230" height="60" as="geometry" />
        </mxCell>
        <mxCell id="LahrY4FiZnsEvUpyiPwn-39" value="" style="endArrow=classic;html=1;rounded=0;" edge="1" parent="1">
          <mxGeometry width="50" height="50" relative="1" as="geometry">
            <mxPoint x="200" y="500" as="sourcePoint" />
            <mxPoint x="200" y="420" as="targetPoint" />
          </mxGeometry>
        </mxCell>
        <mxCell id="LahrY4FiZnsEvUpyiPwn-40" value="Create" style="edgeLabel;html=1;align=center;verticalAlign=middle;resizable=0;points=[];" vertex="1" connectable="0" parent="LahrY4FiZnsEvUpyiPwn-39">
          <mxGeometry x="0.0041" y="1" relative="1" as="geometry">
            <mxPoint as="offset" />
          </mxGeometry>
        </mxCell>
      </root>
    </mxGraphModel>
  </diagram>
</mxfile>
